<svg width="18" height="21" fill="none" xmlns="http://www.w3.org/2000/svg"><path d="M17.233 2.916H13.07V2.23c0-1.23-.986-2.229-2.2-2.229H6.917c-1.213 0-2.2 1-2.2 2.229v.687H.556A.556.556 0 000 3.48c0 .312.247.562.555.562h1.003v13.215c0 1.659 1.333 3.008 2.97 3.008h8.733c1.636 0 2.968-1.35 2.968-3.008V4.041h1.004c.308 0 .555-.25.555-.562a.556.556 0 00-.555-.563zM5.826 2.23c0-.608.49-1.104 1.09-1.104h3.956c.6 0 1.09.496 1.09 1.104v.687H5.825V2.23zm9.293 15.027c0 1.038-.835 1.884-1.858 1.884H4.527c-1.024 0-1.858-.846-1.858-1.884V4.041h12.454v13.215h-.004z" fill="#888"/><path d="M8.893 17.123c.309 0 .556-.25.556-.562V6.62a.556.556 0 00-.556-.563.556.556 0 00-.555.562v9.937a.56.56 0 00.555.566zM5.272 16.502c.308 0 .555-.25.555-.562V7.237a.556.556 0 00-.555-.563.556.556 0 00-.555.563v8.703c0 .312.25.562.555.562zM12.516 16.502c.309 0 .555-.25.555-.562V7.237a.557.557 0 00-.555-.563.556.556 0 00-.555.563v8.703c0 .312.247.562.555.562z" fill="#888"/></svg>
